{
    "asset" : {
        "generator" : "Khronos glTF Blender I/O v1.8.19",
        "version" : "2.0"
    },
    "scene" : 0,
    "scenes" : [
        {
            "name" : "Scene",
            "nodes" : [
                3
            ]
        }
    ],
    "nodes" : [
        {
            "mesh" : 0,
            "name" : "sea_serpent_body.3"
        },
        {
            "mesh" : 1,
            "name" : "sea_serpent_wings.2"
        },
        {
            "children" : [
                0,
                1
            ],
            "name" : "sea_serpent.1"
        },
        {
            "children" : [
                2
            ],
            "name" : "RootNode.0",
            "scale" : [
                0.009999999776482582,
                0.009999999776482582,
                0.009999999776482582
            ]
        }
    ],
    "materials" : [
        {
            "doubleSided" : true,
            "name" : "Material_1",
            "occlusionTexture" : {
                "index" : 0
            },
            "pbrMetallicRoughness" : {
                "baseColorTexture" : {
                    "index" : 1
                },
                "metallicFactor" : 0,
                "roughnessFactor" : 0.5
            }
        },
        {
            "doubleSided" : true,
            "name" : "Material_0",
            "occlusionTexture" : {
                "index" : 2
            },
            "pbrMetallicRoughness" : {
                "baseColorTexture" : {
                    "index" : 3
                },
                "metallicFactor" : 0,
                "roughnessFactor" : 0.5
            }
        }
    ],
    "meshes" : [
        {
            "name" : "Mesh_1",
            "primitives" : [
                {
                    "attributes" : {
                        "POSITION" : 0,
                        "NORMAL" : 1,
                        "TEXCOORD_0" : 2
                    },
                    "indices" : 3,
                    "material" : 0
                }
            ]
        },
        {
            "name" : "Mesh_0",
            "primitives" : [
                {
                    "attributes" : {
                        "POSITION" : 4,
                        "NORMAL" : 5,
                        "TEXCOORD_0" : 6
                    },
                    "indices" : 7,
                    "material" : 1
                }
            ]
        }
    ],
    "textures" : [
        {
            "sampler" : 0,
            "source" : 0
        },
        {
            "sampler" : 0,
            "source" : 1
        },
        {
            "sampler" : 0,
            "source" : 2
        },
        {
            "sampler" : 0,
            "source" : 3
        }
    ],
    "images" : [
        {
            "mimeType" : "image/png",
            "name" : "Image_9",
            "uri" : "textures/Image_9.png"
        },
        {
            "mimeType" : "image/png",
            "name" : "Image_5",
            "uri" : "textures/Image_5.png"
        },
        {
            "mimeType" : "image/png",
            "name" : "Image_4",
            "uri" : "textures/Image_4.png"
        },
        {
            "mimeType" : "image/png",
            "name" : "Image_0",
            "uri" : "textures/Image_0.png"
        }
    ],
    "accessors" : [
        {
            "bufferView" : 0,
            "componentType" : 5126,
            "count" : 19920,
            "max" : [
                774.4727783203125,
                1213.7376708984375,
                366.93719482421875
            ],
            "min" : [
                -786.163330078125,
                -0.070892333984375,
                -468.6170654296875
            ],
            "type" : "VEC3"
        },
        {
            "bufferView" : 1,
            "componentType" : 5126,
            "count" : 19920,
            "type" : "VEC3"
        },
        {
            "bufferView" : 2,
            "componentType" : 5126,
            "count" : 19920,
            "type" : "VEC2"
        },
        {
            "bufferView" : 3,
            "componentType" : 5123,
            "count" : 104556,
            "type" : "SCALAR"
        },
        {
            "bufferView" : 4,
            "componentType" : 5126,
            "count" : 19804,
            "max" : [
                759.2142333984375,
                1207.2374267578125,
                356.53228759765625
            ],
            "min" : [
                -770.5850830078125,
                153.21804809570312,
                -453.6172180175781
            ],
            "type" : "VEC3"
        },
        {
            "bufferView" : 5,
            "componentType" : 5126,
            "count" : 19804,
            "type" : "VEC3"
        },
        {
            "bufferView" : 6,
            "componentType" : 5126,
            "count" : 19804,
            "type" : "VEC2"
        },
        {
            "bufferView" : 7,
            "componentType" : 5123,
            "count" : 35271,
            "type" : "SCALAR"
        }
    ],
    "bufferViews" : [
        {
            "buffer" : 0,
            "byteLength" : 239040,
            "byteOffset" : 0
        },
        {
            "buffer" : 0,
            "byteLength" : 239040,
            "byteOffset" : 239040
        },
        {
            "buffer" : 0,
            "byteLength" : 159360,
            "byteOffset" : 478080
        },
        {
            "buffer" : 0,
            "byteLength" : 209112,
            "byteOffset" : 637440
        },
        {
            "buffer" : 0,
            "byteLength" : 237648,
            "byteOffset" : 846552
        },
        {
            "buffer" : 0,
            "byteLength" : 237648,
            "byteOffset" : 1084200
        },
        {
            "buffer" : 0,
            "byteLength" : 158432,
            "byteOffset" : 1321848
        },
        {
            "buffer" : 0,
            "byteLength" : 70542,
            "byteOffset" : 1480280
        }
    ],
    "samplers" : [
        {
            "magFilter" : 9729,
            "minFilter" : 9987
        }
    ],
    "buffers" : [
        {
            "byteLength" : 1550824,
            "uri" : "DragonTale.bin"
        }
    ]
}
